<?xml version="1.0" standalone="no"?>
<!DOCTYPE svg PUBLIC "-//W3C//DTD SVG 20010904//EN"
 "http://www.w3.org/TR/2001/REC-SVG-20010904/DTD/svg10.dtd">
<svg version="1.0" xmlns="http://www.w3.org/2000/svg"
 width="688.000000pt" height="264.000000pt" viewBox="0 0 688.000000 264.000000"
 preserveAspectRatio="xMidYMid meet">

<g transform="translate(0.000000,264.000000) scale(0.100000,-0.100000)"
fill="#000000" stroke="none">
<path d="M2830 2441 c-14 -5 -44 -9 -68 -10 -61 -1 -166 -54 -222 -110 -26
-26 -62 -79 -81 -117 l-34 -69 0 -190 c0 -152 4 -201 18 -244 9 -30 17 -71 17
-92 0 -20 6 -54 14 -75 7 -22 16 -62 20 -91 3 -28 13 -68 21 -87 8 -19 15 -50
15 -68 0 -19 6 -42 14 -53 7 -11 16 -40 19 -65 3 -25 13 -59 21 -75 9 -17 16
-44 16 -60 0 -17 6 -39 14 -50 7 -11 16 -38 20 -60 4 -22 12 -45 16 -50 5 -6
13 -29 19 -50 14 -58 41 -137 53 -160 6 -11 15 -33 19 -50 10 -38 36 -114 49
-140 6 -11 14 -33 19 -50 5 -16 19 -55 31 -85 12 -30 29 -73 37 -94 27 -75 64
-144 78 -150 28 -10 50 28 73 129 28 119 84 296 109 345 61 119 136 201 225
249 55 29 59 30 96 17 61 -22 114 -59 165 -116 84 -93 131 -192 172 -360 20
-84 28 -118 51 -232 15 -72 93 -90 124 -28 36 71 90 199 90 214 1 6 9 29 20
51 11 22 20 47 20 55 0 8 7 24 15 34 8 11 15 29 15 40 0 12 6 33 14 47 7 14
26 66 41 115 15 49 31 98 36 109 5 11 13 38 18 60 11 45 26 100 51 195 10 36
25 99 34 140 8 41 23 109 32 150 9 41 20 100 24 130 4 30 13 82 20 115 8 39 9
86 4 135 l-7 75 -14 -88 c-7 -48 -17 -96 -23 -107 -5 -10 -10 -32 -10 -49 0
-17 -9 -53 -20 -81 -11 -28 -20 -64 -20 -81 0 -16 -6 -42 -14 -57 -7 -15 -16
-47 -20 -71 -4 -24 -13 -56 -21 -72 -8 -15 -15 -41 -15 -57 0 -15 -7 -37 -15
-48 -8 -10 -15 -30 -15 -44 0 -14 -9 -42 -20 -63 -11 -20 -20 -47 -20 -60 0
-13 -7 -32 -15 -43 -8 -10 -15 -28 -15 -39 0 -11 -9 -38 -20 -60 -11 -22 -19
-48 -20 -58 0 -11 -6 -31 -14 -45 -7 -15 -23 -54 -36 -87 -25 -69 -46 -124
-71 -180 -9 -22 -18 -49 -20 -59 -11 -57 -53 -10 -74 81 -32 144 -106 286
-201 385 -49 51 -127 108 -148 108 -8 0 -19 7 -26 16 -25 30 -48 35 -93 23
-23 -7 -49 -18 -57 -25 -8 -6 -26 -15 -39 -19 -33 -10 -177 -154 -196 -196 -8
-19 -19 -41 -24 -49 -24 -39 -51 -102 -51 -118 0 -10 -7 -27 -15 -38 -8 -10
-15 -34 -15 -51 0 -18 -7 -50 -15 -70 -8 -21 -18 -65 -23 -97 -4 -33 -12 -61
-17 -63 -11 -3 -55 73 -55 95 0 8 -7 26 -15 40 -17 30 -26 57 -91 257 -25 77
-49 147 -54 155 -4 9 -11 31 -14 50 -4 19 -14 53 -21 75 -7 22 -23 78 -35 125
-12 47 -28 108 -35 135 -66 243 -137 656 -138 805 -2 167 66 312 168 363 101
50 292 70 410 43 33 -8 85 -17 115 -20 58 -8 100 -28 100 -49 0 -6 -23 -25
-50 -42 -90 -54 -50 -62 80 -14 47 16 99 34 115 38 17 5 41 13 55 19 24 9 91
29 240 68 95 26 399 27 424 1 18 -18 76 -24 76 -7 0 5 -12 13 -27 16 -16 4
-35 12 -43 19 -8 7 -36 16 -62 19 -26 4 -50 11 -53 17 -8 12 -251 12 -276 -1
-10 -6 -56 -13 -101 -17 -46 -3 -96 -12 -111 -20 -42 -21 -168 -21 -200 0 -15
9 -38 17 -52 17 -14 0 -42 7 -63 16 -58 25 -375 51 -422 35z"/>
<path d="M4245 2320 c-3 -6 5 -14 19 -20 14 -5 26 -14 26 -20 0 -5 5 -10 10
-10 14 0 -8 34 -31 48 -12 8 -20 8 -24 2z"/>
<path d="M165 1120 c-4 -7 337 -10 1014 -10 674 0 1021 3 1021 10 0 14 -2026
14 -2035 0z"/>
<path d="M4670 1120 c0 -7 347 -10 1020 -10 673 0 1020 3 1020 10 0 7 -347 10
-1020 10 -673 0 -1020 -3 -1020 -10z"/>
</g>
</svg>
