<?xml version="1.0" standalone="no"?>
<!DOCTYPE svg PUBLIC "-//W3C//DTD SVG 20010904//EN"
 "http://www.w3.org/TR/2001/REC-SVG-20010904/DTD/svg10.dtd">
<svg version="1.0" xmlns="http://www.w3.org/2000/svg"
 width="407.000000pt" height="72.000000pt" viewBox="0 0 407.000000 72.000000"
 preserveAspectRatio="xMidYMid meet">

<g transform="translate(0.000000,72.000000) scale(0.100000,-0.100000)"
fill="#000000" stroke="none">
<path d="M1991 655 c-44 -38 -112 -129 -156 -208 -44 -80 -214 -263 -281 -302
-51 -30 -120 -37 -135 -15 -12 19 -2 91 22 154 10 27 15 54 12 59 -3 6 -1 7 5
3 7 -4 12 -3 12 2 0 5 18 37 40 70 22 34 37 62 34 62 -2 0 0 9 6 20 20 37 4
20 -29 -29 -17 -27 -36 -63 -42 -80 -6 -17 -15 -29 -20 -28 -16 3 -61 -112
-53 -135 4 -14 2 -18 -5 -14 -20 13 -12 -60 10 -88 25 -31 72 -35 127 -9 37
17 171 144 230 217 l31 39 -14 -48 c-8 -26 -15 -62 -15 -80 0 -36 31 -75 60
-75 24 0 105 62 105 81 0 8 9 13 23 12 16 -2 32 10 59 45 21 27 48 56 61 66
l23 18 -16 -39 c-30 -71 8 -108 70 -67 22 15 23 14 18 -5 -11 -44 23 -20 52
36 17 31 38 67 49 80 l18 24 17 -33 c17 -35 51 -45 59 -18 4 12 2 13 -9 3 -20
-20 -28 -16 -37 19 -11 44 -32 45 -62 4 -14 -19 -26 -33 -28 -31 -2 1 5 21 14
44 27 67 8 59 -27 -11 -29 -60 -65 -96 -111 -114 -23 -8 -24 13 -3 63 20 47
19 66 -5 88 -19 17 -21 17 -41 -1 -12 -10 -40 -44 -62 -74 -80 -111 -160 -179
-193 -166 -24 9 -14 106 11 106 28 0 147 165 207 288 28 56 30 65 16 78 -13
14 -18 12 -47 -11z m18 -57 c-47 -93 -184 -286 -195 -275 -9 9 56 139 102 205
88 126 142 166 93 70z m31 -231 c-24 -23 -37 -33 -30 -22 25 36 63 75 69 70 3
-3 -15 -25 -39 -48z"/>
<path d="M3060 670 c-47 -7 -226 -46 -297 -66 -22 -6 -38 -30 -25 -38 4 -3 45
9 91 25 97 34 115 36 102 12 -26 -50 -132 -307 -151 -366 -21 -66 -21 -105 1
-91 6 3 9 19 7 35 -3 16 0 25 5 22 6 -4 8 3 5 15 -4 14 -2 20 5 15 6 -4 8 2 5
15 -4 12 -3 20 2 17 4 -3 11 3 14 12 4 9 2 19 -3 22 -5 4 -4 13 3 23 7 10 15
15 18 12 3 -2 8 2 11 11 4 8 2 15 -4 15 -6 0 -7 5 -4 10 4 6 11 8 16 5 5 -4 9
-1 9 5 0 19 110 244 123 252 15 9 131 21 212 22 61 1 100 -16 88 -38 -4 -8 -2
-8 6 0 18 16 3 41 -31 53 -34 12 -124 12 -208 1z m-164 -197 c-8 -15 -15 -25
-16 -21 0 12 23 58 27 54 3 -2 -2 -17 -11 -33z"/>
<path d="M358 633 c-83 -88 -161 -221 -236 -402 -21 -51 -23 -53 -37 -35 -14
18 -14 17 -15 -12 0 -20 6 -34 16 -38 18 -7 44 10 44 27 0 13 54 162 83 229
12 27 25 45 31 41 6 -3 8 -3 4 2 -4 4 0 14 10 22 11 10 12 12 2 8 -8 -4 -4 3
10 15 14 12 18 19 10 15 -10 -4 -9 -1 3 8 9 8 17 19 17 24 0 6 11 18 25 27 14
9 23 20 21 25 -3 4 8 18 24 30 38 28 38 19 -1 -99 -17 -53 -28 -103 -25 -116
3 -12 1 -24 -5 -26 -6 -2 -12 -24 -14 -48 -1 -25 -4 -46 -5 -47 -1 -2 -3 -6
-5 -10 -1 -5 -5 -16 -10 -27 -8 -19 13 -42 26 -28 12 14 44 107 41 121 -2 7 1
10 7 6 7 -4 8 0 4 11 -4 12 -3 15 5 10 7 -4 10 -2 7 7 -6 14 30 67 46 67 6 0
8 -32 7 -76 -3 -70 -2 -78 19 -91 31 -21 52 -10 101 53 24 29 47 54 51 54 5 0
4 -17 -2 -38 -6 -22 -7 -46 -4 -55 8 -21 46 -22 75 -1 21 14 22 14 22 -6 0
-34 19 -19 52 40 16 30 40 66 54 80 23 23 24 23 24 4 0 -11 6 -29 14 -40 13
-17 17 -17 37 -6 20 13 21 12 14 -5 -17 -42 -22 -82 -12 -92 19 -19 50 -12 79
16 27 26 28 26 28 5 0 -12 4 -22 9 -22 5 0 34 29 66 65 32 36 59 64 61 62 2
-2 -4 -22 -13 -45 -18 -48 -7 -72 33 -72 22 0 110 67 100 77 -2 3 -28 -12 -56
-31 -58 -40 -75 -45 -67 -19 33 114 32 112 10 134 l-20 21 -35 -31 c-19 -17
-38 -27 -42 -24 -4 4 -4 -1 0 -10 3 -10 2 -17 -3 -15 -5 2 -33 -23 -62 -55
-29 -31 -57 -57 -62 -57 -16 0 -9 34 20 97 16 34 27 64 24 67 -12 12 -24 6
-34 -18 -6 -13 -22 -29 -35 -35 -22 -10 -25 -8 -38 24 -8 19 -19 35 -25 35 -5
0 -23 -17 -40 -37 l-32 -38 17 40 c9 22 18 46 21 53 3 6 1 12 -4 12 -5 0 -22
-27 -38 -61 -28 -58 -90 -119 -122 -119 -16 0 -17 -4 7 64 16 46 17 61 7 76
-28 45 -56 29 -122 -70 -26 -39 -49 -70 -51 -70 -3 0 -4 39 -2 88 3 83 2 87
-19 90 -17 2 -30 -9 -57 -50 -20 -29 -36 -48 -36 -43 0 6 16 65 35 132 19 67
35 131 35 141 0 16 -17 32 -34 32 -1 0 -18 -17 -38 -37z m246 -235 c-40 -47
-76 -82 -68 -68 16 31 66 90 76 90 6 0 3 -10 -8 -22z m480 -32 c-21 -25 -40
-43 -42 -41 -3 2 12 25 33 50 20 25 39 44 42 41 3 -3 -12 -25 -33 -50z"/>
<path d="M1675 632 c-22 -16 -56 -47 -75 -68 -23 -26 -26 -31 -7 -15 15 14 27
21 27 17 0 -5 16 6 35 23 41 36 94 65 103 57 14 -14 -31 -118 -68 -157 -30
-32 -35 -42 -23 -46 20 -8 48 25 80 94 49 106 11 156 -72 95z"/>
<path d="M3307 600 c-36 -38 -54 -66 -50 -76 3 -9 0 -14 -8 -12 -9 2 -13 -4
-11 -16 2 -12 -1 -16 -9 -10 -8 4 -10 3 -5 -5 9 -15 -13 -73 -25 -66 -4 3 -13
-12 -19 -34 -8 -30 -21 -46 -57 -70 -53 -35 -68 -39 -60 -13 32 112 32 111 11
132 -18 18 -21 19 -42 4 -51 -36 -125 -174 -93 -174 5 0 34 29 66 65 32 36 59
64 61 62 2 -2 -4 -22 -13 -45 -13 -34 -13 -44 -3 -57 17 -21 53 -19 83 6 l27
20 -3 -37 c-3 -52 15 -52 36 0 32 77 114 156 118 114 4 -37 -9 -57 -79 -123
-61 -57 -74 -75 -68 -91 7 -17 9 -16 21 11 14 33 91 112 100 103 9 -9 -14 -60
-25 -53 -6 4 -7 -1 -3 -11 4 -11 2 -15 -4 -11 -13 8 -46 -27 -36 -38 5 -4 1
-6 -8 -3 -9 4 -16 1 -16 -7 0 -43 111 79 132 144 8 26 35 36 35 13 0 -10 5
-23 12 -30 34 -34 98 14 98 73 0 35 0 35 43 35 42 0 42 0 43 -37 0 -25 8 -42
25 -55 21 -18 22 -21 6 -29 -27 -15 -47 -62 -36 -82 6 -9 17 -17 25 -17 25 0
73 33 81 55 8 22 8 22 -1 51 -6 18 5 30 65 74 39 28 73 50 75 47 3 -2 -11 -28
-31 -57 -35 -52 -42 -74 -27 -84 11 -7 22 2 71 62 23 28 46 52 51 52 4 0 3
-17 -3 -38 -21 -80 25 -97 93 -36 54 49 43 55 -16 10 -40 -30 -74 -46 -74 -33
0 2 9 30 20 61 16 46 17 61 7 76 -17 29 -33 31 -60 10 -13 -11 -27 -17 -30
-14 -3 3 -42 -18 -88 -47 -70 -43 -87 -50 -108 -43 -14 5 -27 17 -29 25 -4 23
54 78 105 101 44 20 54 34 28 44 -16 6 -93 -35 -115 -60 -14 -18 -135 -23
-145 -6 -11 19 -25 10 -57 -35 -18 -25 -34 -45 -38 -45 -3 0 -11 14 -17 30
-16 42 -56 41 -100 -2 -50 -49 -39 -25 18 38 64 71 151 203 147 223 -7 33 -37
20 -91 -39z m59 2 c-18 -34 -134 -192 -141 -192 -3 0 2 17 10 37 9 20 13 43
10 50 -2 8 -1 12 4 9 5 -3 17 7 27 22 9 15 36 49 58 75 42 50 58 50 32 -1z
m-352 -236 c-21 -25 -40 -43 -42 -41 -3 2 12 25 33 50 20 25 39 44 42 41 3 -3
-12 -25 -33 -50z m830 32 c-40 -47 -76 -82 -68 -68 16 31 66 90 76 90 6 0 3
-10 -8 -22z m-394 -3 c10 -12 10 -21 0 -45 -19 -47 -70 -68 -70 -30 0 14 5 18
18 13 15 -6 15 -5 4 10 -12 14 -11 20 5 41 21 30 26 31 43 11z m195 -125 c9
-14 -40 -60 -65 -60 -27 0 -25 8 7 42 28 29 47 35 58 18z m-395 -64 c0 -2 -8
-10 -17 -17 -16 -13 -17 -12 -4 4 13 16 21 21 21 13z"/>
<path d="M226 598 c-43 -74 -98 -202 -88 -206 6 -2 8 -13 6 -25 -4 -21 -4 -21
5 -2 5 13 5 25 -3 34 -9 12 -8 13 7 8 11 -4 16 -3 12 3 -3 6 -2 10 4 10 5 0
14 15 20 33 6 19 31 66 55 105 24 39 41 73 38 76 -14 15 -33 2 -56 -36z"/>
<path d="M988 515 c-20 -26 -23 -45 -8 -45 8 0 40 51 40 65 0 12 -16 3 -32
-20z"/>
<path d="M2438 440 c-26 -16 -111 -149 -104 -165 9 -25 22 -17 66 41 24 30 51
59 60 64 16 9 16 6 2 -34 -9 -23 -13 -50 -9 -59 14 -36 88 -7 131 51 22 28 12
24 -52 -25 -24 -18 -48 -33 -53 -33 -14 0 -11 27 8 81 17 48 17 48 -6 68 -13
12 -24 21 -25 21 -1 0 -9 -5 -18 -10z m13 -37 c-5 -10 -26 -34 -47 -53 -36
-34 -37 -34 -17 -5 39 56 87 99 64 58z"/>
<path d="M100 318 c0 -9 5 -20 11 -23 17 -11 20 0 4 21 -13 17 -14 17 -15 2z"/>
<path d="M81 244 c0 -11 3 -14 6 -6 3 7 2 16 -1 19 -3 4 -6 -2 -5 -13z"/>
<path d="M95 220 c-3 -5 -1 -10 4 -10 6 0 11 5 11 10 0 6 -2 10 -4 10 -3 0 -8
-4 -11 -10z"/>
</g>
</svg>
